<svg xmlns="http://www.w3.org/2000/svg" width="48.033" height="51.227" viewBox="0 0 48.033 51.227"><defs><style>.a{fill:#566fff;}</style></defs><g transform="translate(-16.961 0)"><g transform="translate(16.961 0)"><path class="a" d="M63.554,27.144l-5.349-9.264.434-.251a4.03,4.03,0,1,0-4.03-6.981l-.434.251L48.827,1.634a3.267,3.267,0,0,0-5.974,2.52L37.731,9.917a1,1,0,0,0,1.5,1.329l4.611-5.188,13.4,23.2-22.388,4.8L28.585,23.22l4.66-5.244a1,1,0,0,0-1.5-1.329L26.717,22.31l-8.37,4.832A4.769,4.769,0,0,0,16.6,33.657l3.218,5.573a4.772,4.772,0,0,0,6.515,1.746L28.712,39.6l10.44,10.439a4.049,4.049,0,0,0,5.726-5.727L41.261,40.7l.987-.57a2.71,2.71,0,0,0,.482-4.34l-1.2-1.11,16.864-3.618a3.246,3.246,0,0,0,1.491.871,3.283,3.283,0,0,0,.851.113,3.267,3.267,0,0,0,2.823-4.9ZM55.176,12.632l.434-.251A2.029,2.029,0,1,1,57.639,15.9l-.434.251-2-3.457ZM25.334,39.243a2.772,2.772,0,0,1-3.781-1.013l-3.218-5.573a2.768,2.768,0,0,1,1.013-3.781l7.643-4.413L32.977,34.83Zm18.713,8.2a2.048,2.048,0,0,1-3.479,1.181L30.507,38.567l3.673-2.12,9.285,9.284A2.034,2.034,0,0,1,44.046,47.446ZM41.373,37.26a.709.709,0,0,1-.126,1.135l-1.451.838-3.445-3.444,2.779-.6ZM61.948,29.1a1.265,1.265,0,0,1-2.318.305L44.9,3.9A1.266,1.266,0,0,1,46,2a1.271,1.271,0,0,1,.329.044,1.257,1.257,0,0,1,.768.59L61.821,28.144A1.257,1.257,0,0,1,61.948,29.1Z" transform="translate(-15.961 0)"/><path class="a" d="M202.131,131.4a1,1,0,1,0-.707-.293A1.008,1.008,0,0,0,202.131,131.4Z" transform="translate(-182.603 -116.453)"/></g></g></svg>