<svg xmlns="http://www.w3.org/2000/svg" width="24.516" height="14.789" viewBox="0 0 24.516 14.789"><defs><style>.a{fill:#566fff;stroke:#566fff;}</style></defs><g transform="translate(0.5 -100.198)"><g transform="translate(0 100.698)"><path class="a" d="M23.14,101.85l-.77-.77a1.3,1.3,0,0,0-1.82,0L11.763,109.8l-8.8-8.733a1.3,1.3,0,0,0-1.819,0l-.77.765a1.272,1.272,0,0,0,0,1.806L10.85,114.078a1.319,1.319,0,0,0,.912.41h0a1.319,1.319,0,0,0,.909-.41L23.14,103.67a1.285,1.285,0,0,0,.376-.912A1.272,1.272,0,0,0,23.14,101.85Z" transform="translate(0 -100.698)"/></g></g></svg>