<svg xmlns="http://www.w3.org/2000/svg" width="59.978" height="59.974" viewBox="0 0 59.978 59.974">
  <g id="mail" transform="translate(-0.001 -0.015)">
    <g id="Group_70" data-name="Group 70" transform="translate(0.001 0.015)">
      <g id="Group_69" data-name="Group 69" transform="translate(0 0)">
        <path id="Path_35" data-name="Path 35" d="M59.978,23c0-.021-.011-.039-.012-.059a.954.954,0,0,0-.041-.2,1.034,1.034,0,0,0-.057-.173.965.965,0,0,0-.1-.15.982.982,0,0,0-.136-.158c-.016-.014-.023-.033-.04-.046l-9.611-7.466V7.008a3,3,0,0,0-3-3H36.15L31.812.641a2.966,2.966,0,0,0-3.646,0L23.828,4.009H13a3,3,0,0,0-3,3v7.738L.387,22.213c-.017.013-.024.032-.04.046a.982.982,0,0,0-.136.158.957.957,0,0,0-.1.15.986.986,0,0,0-.057.173.947.947,0,0,0-.041.2c0,.02-.012.038-.012.059V56.99a2.963,2.963,0,0,0,.167.945.991.991,0,0,0,1.1,1.5A2.977,2.977,0,0,0,3,59.989H56.98a2.979,2.979,0,0,0,1.736-.563.986.986,0,0,0,1.1-1.491,2.966,2.966,0,0,0,.166-.945V23ZM29.389,2.219a.958.958,0,0,1,1.193,0l2.306,1.79h-5.8ZM3.247,57.99,29.389,37.683a.962.962,0,0,1,1.192,0L56.732,57.99Zm54.732-1.561L31.81,36.1a2.965,2.965,0,0,0-3.643,0L2,56.428v-31.9L18.38,37.245a1,1,0,1,0,1.226-1.581L2.964,22.741,10,17.277V25a1,1,0,1,0,2,0V7.008a1,1,0,0,1,1-1H46.983a1,1,0,0,1,1,1V25a1,1,0,1,0,2,0V17.277l7.032,5.464L40.342,35.688a1,1,0,0,0,1.227,1.579l16.41-12.742Z" transform="translate(-0.001 -0.015)" fill="#566fff"/>
        <path id="Path_36" data-name="Path 36" d="M163.125,95.843h19.993a1,1,0,1,0,0-2H163.125a1,1,0,1,0,0,2Z" transform="translate(-143.133 -82.852)" fill="#566fff"/>
        <path id="Path_37" data-name="Path 37" d="M184.117,146.044a1,1,0,0,0-1-1H163.125a1,1,0,1,0,0,2h19.993A1,1,0,0,0,184.117,146.044Z" transform="translate(-143.133 -128.054)" fill="#566fff"/>
        <path id="Path_38" data-name="Path 38" d="M266.988,197.244a1,1,0,0,0-1-1h-9a1,1,0,1,0,0,2h9A1,1,0,0,0,266.988,197.244Z" transform="translate(-226.004 -173.257)" fill="#566fff"/>
      </g>
    </g>
  </g>
</svg>
