<svg xmlns="http://www.w3.org/2000/svg" width="16.604" height="10.15" viewBox="0 0 16.604 10.15">
  <g id="download_2_" data-name="download (2)" transform="translate(0.5 -100.198)">
    <g id="Group_79" data-name="Group 79" transform="translate(0 100.698)">
      <path id="Path_42" data-name="Path 42" d="M15.354,101.463l-.511-.511a.86.86,0,0,0-1.207,0l-5.83,5.789-5.837-5.795a.86.86,0,0,0-1.207,0l-.511.508a.844.844,0,0,0,0,1.2l6.95,6.924a.875.875,0,0,0,.605.272h0a.875.875,0,0,0,.6-.272l6.943-6.906a.853.853,0,0,0,.249-.605A.844.844,0,0,0,15.354,101.463Z" transform="translate(0 -100.698)" fill="#f8f8f8" stroke="#f8f8f8" stroke-width="1"/>
    </g>
  </g>
</svg>
