<svg xmlns="http://www.w3.org/2000/svg" width="60" height="59.005" viewBox="0 0 60 59.005"><defs><style>.a{fill:#566fff;}</style></defs><g transform="translate(0 -5.246)"><g transform="translate(0 5.246)"><g transform="translate(0 0)"><path class="a" d="M95.038,45.835c2.475,3.485,4.945,6.6,6.583,8.61.238.292.462.563.678.824H97.357a1,1,0,1,0,0,2h16.024a1,1,0,1,0,0-2H108.44c.216-.261.44-.532.679-.824,1.636-2,4.106-5.125,6.582-8.61a87.883,87.883,0,0,0,6.616-10.651c2.045-4.012,3.083-7.342,3.083-9.9a19.983,19.983,0,0,0-5.866-14.167,1,1,0,1,0-1.417,1.413,17.991,17.991,0,0,1,5.28,12.753c0,2.239-.963,5.264-2.864,8.991a85.9,85.9,0,0,1-6.466,10.4c-2.442,3.44-4.882,6.523-6.5,8.5-.538.658-1.022,1.24-1.434,1.733a1.015,1.015,0,0,1-1.526,0c-.413-.492-.9-1.074-1.434-1.733-1.617-1.98-4.058-5.062-6.5-8.5a85.9,85.9,0,0,1-6.466-10.4c-1.9-3.727-2.864-6.752-2.864-8.991A18.032,18.032,0,0,1,112.39,8.668a1,1,0,1,0,.782-1.843A20.029,20.029,0,0,0,85.34,25.285c0,2.557,1.038,5.887,3.083,9.9A87.821,87.821,0,0,0,95.038,45.835Z" transform="translate(-75.368 -5.246)"/><path class="a" d="M180.631,84.079a1,1,0,1,0,0-1.994,9.97,9.97,0,1,0,7.05,2.92,1,1,0,1,0-1.41,1.41,7.976,7.976,0,1,1-5.64-2.336Z" transform="translate(-150.631 -73.067)"/><path class="a" d="M59.624,376.217l-6.15-10.968a3.11,3.11,0,0,0-2.721-1.566H43.626a1,1,0,1,0,0,1.994h7.127a1.11,1.11,0,0,1,.977.544l6.148,10.968a.9.9,0,0,1-.009.921,1.1,1.1,0,0,1-.968.528H3.1a1.1,1.1,0,0,1-.967-.528.9.9,0,0,1-.009-.921l6.148-10.968a1.109,1.109,0,0,1,.976-.544h7.127a1,1,0,1,0,0-1.994H9.249a3.111,3.111,0,0,0-2.723,1.566L.377,376.217a2.884,2.884,0,0,0,.031,2.9A3.082,3.082,0,0,0,3.1,380.633H56.9a3.082,3.082,0,0,0,2.692-1.514A2.884,2.884,0,0,0,59.624,376.217Z" transform="translate(0 -321.629)"/><path class="a" d="M357.845,406.351h-3.988a1,1,0,0,0-.553.168l-2.991,1.994a1,1,0,0,0,1.107,1.659l2.737-1.827h3.689a1,1,0,0,0,0-1.994Z" transform="translate(-308.847 -359.311)"/><path class="a" d="M366.937,458.548a1,1,0,0,0,1,1h7.976a1,1,0,1,0,0-1.994h-7.976A1,1,0,0,0,366.937,458.548Z" transform="translate(-323.886 -404.529)"/><path class="a" d="M93.313,410.338a1,1,0,0,0,.554-1.827l-2.991-1.994a1,1,0,0,0-.554-.168H86.334a1,1,0,0,0,0,1.994h3.689l2.74,1.827A1,1,0,0,0,93.313,410.338Z" transform="translate(-75.331 -359.31)"/><path class="a" d="M60.734,457.551a1,1,0,0,0,0,1.994H68.71a1,1,0,0,0,0-1.994Z" transform="translate(-52.757 -404.529)"/></g></g></g></svg>