<svg xmlns="http://www.w3.org/2000/svg" width="45.237" height="59.005" viewBox="0 0 45.237 59.005">
  <g id="address" transform="translate(-59.734)">
    <g id="Group_95" data-name="Group 95" transform="translate(59.734)">
      <g id="Group_94" data-name="Group 94">
        <path id="Path_49" data-name="Path 49" d="M102.021,0h-35.4a2.95,2.95,0,0,0-2.95,2.95V6.884h-2.95a.983.983,0,0,0,0,1.967h2.95V17.7h-2.95a.983.983,0,0,0,0,1.967h2.95v8.851h-2.95a.983.983,0,0,0,0,1.967h2.95v8.851h-2.95a.983.983,0,1,0,0,1.967h2.95v8.851h-2.95a.983.983,0,0,0,0,1.967h2.95v3.934a2.95,2.95,0,0,0,2.95,2.95h35.4a2.95,2.95,0,0,0,2.95-2.95V2.95A2.95,2.95,0,0,0,102.021,0ZM103,56.055a.983.983,0,0,1-.983.983h-35.4a.983.983,0,0,1-.983-.983V2.95a.983.983,0,0,1,.983-.983h35.4A.983.983,0,0,1,103,2.95Z" transform="translate(-59.734)" fill="#566fff"/>
        <path id="Path_50" data-name="Path 50" d="M129.682,60.06a1,1,0,0,0-.325-.208.983.983,0,0,0-1.072.208,1.131,1.131,0,0,0-.207.323.984.984,0,0,0-.079.371,1.035,1.035,0,0,0,.285.7l.148.117a.745.745,0,0,0,.177.089.7.7,0,0,0,.177.059,1.481,1.481,0,0,0,.2.02,1,1,0,0,0,.374-.079,1.18,1.18,0,0,0,.325-.207,1.036,1.036,0,0,0,.285-.7.826.826,0,0,0-.079-.375A1.132,1.132,0,0,0,129.682,60.06Z" transform="translate(-120.133 -52.887)" fill="#566fff"/>
        <path id="Path_51" data-name="Path 51" d="M129.682,153.918a1.018,1.018,0,0,0-.325-.208.983.983,0,0,0-1.072.208,1.131,1.131,0,0,0-.207.323.985.985,0,0,0-.079.372,1.035,1.035,0,0,0,.285.7l.148.117a.749.749,0,0,0,.177.09.7.7,0,0,0,.177.059,1.481,1.481,0,0,0,.2.02,1,1,0,0,0,.374-.079,1.18,1.18,0,0,0,.325-.207,1.036,1.036,0,0,0,.285-.7.826.826,0,0,0-.079-.375A1.135,1.135,0,0,0,129.682,153.918Z" transform="translate(-120.133 -135.929)" fill="#566fff"/>
        <path id="Path_52" data-name="Path 52" d="M129.682,247.776a1.017,1.017,0,0,0-.325-.208.983.983,0,0,0-1.072.208,1.131,1.131,0,0,0-.207.323.985.985,0,0,0-.079.373,1.035,1.035,0,0,0,.285.7l.148.117a.75.75,0,0,0,.177.09.7.7,0,0,0,.177.059,1.341,1.341,0,0,0,.2.02,1,1,0,0,0,.374-.079,1.157,1.157,0,0,0,.325-.207,1.035,1.035,0,0,0,.285-.7.829.829,0,0,0-.079-.375A1.136,1.136,0,0,0,129.682,247.776Z" transform="translate(-120.133 -218.97)" fill="#566fff"/>
        <path id="Path_53" data-name="Path 53" d="M129.682,341.641a1.015,1.015,0,0,0-.325-.207.983.983,0,0,0-1.072.207,1.136,1.136,0,0,0-.207.325.984.984,0,0,0-.079.373,1.035,1.035,0,0,0,.285.7l.148.118a.748.748,0,0,0,.177.089.624.624,0,0,0,.177.059,1.341,1.341,0,0,0,.2.02.981.981,0,0,0,.374-.079,1.136,1.136,0,0,0,.325-.207,1.035,1.035,0,0,0,.285-.7.824.824,0,0,0-.079-.374A1.138,1.138,0,0,0,129.682,341.641Z" transform="translate(-120.133 -302.018)" fill="#566fff"/>
        <path id="Path_54" data-name="Path 54" d="M129.682,435.5a1.016,1.016,0,0,0-.325-.207.984.984,0,0,0-1.072.207,1.137,1.137,0,0,0-.207.325.986.986,0,0,0-.079.374,1.035,1.035,0,0,0,.285.7l.148.118a.748.748,0,0,0,.177.089.624.624,0,0,0,.177.059,1.337,1.337,0,0,0,.2.02.981.981,0,0,0,.374-.079,1.136,1.136,0,0,0,.325-.207,1.035,1.035,0,0,0,.285-.7.824.824,0,0,0-.079-.374A1.139,1.139,0,0,0,129.682,435.5Z" transform="translate(-120.133 -385.06)" fill="#566fff"/>
        <path id="Path_55" data-name="Path 55" d="M226.783,99.1h1.967a4.923,4.923,0,0,0,4.917-4.917V90.25a4.923,4.923,0,0,0-4.917-4.917h-1.967a4.923,4.923,0,0,0-4.917,4.917v3.934A4.923,4.923,0,0,0,226.783,99.1Zm-2.95-8.851a2.95,2.95,0,0,1,2.95-2.95h1.967a2.95,2.95,0,0,1,2.95,2.95v3.934a2.95,2.95,0,0,1-2.95,2.95h-1.967a2.95,2.95,0,0,1-2.95-2.95Z" transform="translate(-203.181 -75.499)" fill="#566fff"/>
        <path id="Path_56" data-name="Path 56" d="M209.273,221.867h-8.33a4.811,4.811,0,0,0-4.686,4.917V231.7a.983.983,0,1,0,1.967,0v-4.917a2.845,2.845,0,0,1,2.719-2.95h8.33a2.845,2.845,0,0,1,2.719,2.95v3.934h-3.645a.983.983,0,0,0,0,1.967h4.628a.983.983,0,0,0,.983-.983v-4.917A4.811,4.811,0,0,0,209.273,221.867Z" transform="translate(-180.523 -196.298)" fill="#566fff"/>
        <path id="Path_57" data-name="Path 57" d="M212.985,358.4H197.25a.983.983,0,1,0,0,1.967h15.735a.983.983,0,0,0,0-1.967Z" transform="translate(-180.532 -317.096)" fill="#566fff"/>
        <path id="Path_58" data-name="Path 58" d="M212.985,409.6H197.25a.983.983,0,1,0,0,1.967h15.735a.983.983,0,0,0,0-1.967Z" transform="translate(-180.532 -362.396)" fill="#566fff"/>
      </g>
    </g>
  </g>
</svg>
