<svg xmlns="http://www.w3.org/2000/svg" width="50.227" height="50.227" viewBox="0 0 50.227 50.227"><defs><style>.a{fill:#566fff;}</style></defs><g transform="translate(0 17.069)"><path class="a" d="M33.942,188.224a.981.981,0,0,0-.981.981v6.769a4.91,4.91,0,0,1-4.9,4.9H17.465a.981.981,0,0,0-.981.98v1.95l-2.341-2.341a.981.981,0,0,0-.9-.589H6.867a4.911,4.911,0,0,1-4.9-4.9V180.867a4.911,4.911,0,0,1,4.9-4.9h9.908a.981.981,0,0,0,0-1.962H6.867A6.875,6.875,0,0,0,0,180.867v15.107a6.875,6.875,0,0,0,6.867,6.867h5.872l4.029,4.029a.981.981,0,0,0,1.675-.693l0-3.336h9.611a6.875,6.875,0,0,0,6.867-6.867v-6.769A.981.981,0,0,0,33.942,188.224Z" transform="translate(0 -174)"/></g><g transform="translate(19.227)"><path class="a" d="M212.741,0h-2.483a14.258,14.258,0,1,0,0,28.516h2.483a14.285,14.285,0,0,0,3.619-.464l3.668,3.666a.981.981,0,0,0,1.674-.694V25.349a14.394,14.394,0,0,0,3.748-4.621A14.1,14.1,0,0,0,227,14.258,14.274,14.274,0,0,0,212.741,0Zm7.39,24.087a.981.981,0,0,0-.391.784v3.787l-2.4-2.4a.98.98,0,0,0-.982-.244,12.3,12.3,0,0,1-3.617.541h-2.483a12.3,12.3,0,1,1,0-24.593h2.483a12.3,12.3,0,0,1,7.39,22.125Z" transform="translate(-196)"/></g><g transform="translate(30.848 6.873)"><path class="a" d="M322.758,73.924a4.163,4.163,0,0,0-3.851-3.851,4.121,4.121,0,0,0-3.126,1.107,4.168,4.168,0,0,0-1.32,3.037.981.981,0,0,0,1.962,0,2.192,2.192,0,0,1,2.349-2.186,2.192,2.192,0,0,1,.324,4.324,1.856,1.856,0,0,0-1.462,1.82v2.357a.981.981,0,1,0,1.962,0V78.253A4.132,4.132,0,0,0,322.758,73.924Z" transform="translate(-314.462 -70.063)"/></g><g transform="translate(34.021 20.241)"><path class="a" d="M348.475,206.617a.982.982,0,1,0,.287.694A.988.988,0,0,0,348.475,206.617Z" transform="translate(-346.8 -206.33)"/></g><g transform="translate(5.297 30.411)"><path class="a" d="M75.68,310h-20.7a.981.981,0,0,0,0,1.962h20.7a.981.981,0,0,0,0-1.962Z" transform="translate(-54 -310)"/></g><g transform="translate(25.996 35.904)"><path class="a" d="M266.674,366.287a.98.98,0,1,0,.288.694A.988.988,0,0,0,266.674,366.287Z" transform="translate(-265 -366)"/></g><g transform="translate(5.297 35.904)"><path class="a" d="M71.821,366H54.981a.981.981,0,0,0,0,1.962h16.84a.981.981,0,0,0,0-1.962Z" transform="translate(-54 -366)"/></g><g transform="translate(5.297 24.917)"><path class="a" d="M69.3,254H54.981a.981.981,0,1,0,0,1.962H69.3a.981.981,0,0,0,0-1.962Z" transform="translate(-54 -254)"/></g></svg>