<svg xmlns="http://www.w3.org/2000/svg" width="485.465" height="43" viewBox="0 0 485.465 43">
  <g id="Group_75" data-name="Group 75" transform="translate(-320 -25)">
    <path id="Path_39" data-name="Path 39" d="M21.5,0A21.5,21.5,0,1,1,0,21.5,21.5,21.5,0,0,1,21.5,0Z" transform="translate(320 25)" fill="#566fff"/>
    <path id="Path_27" data-name="Path 27" d="M13.792,30H6.72a5.355,5.355,0,0,1-3.9-1.344A5.169,5.169,0,0,1,1.44,24.784V18.9a5.169,5.169,0,0,1,1.376-3.872,5.355,5.355,0,0,1,3.9-1.344H9.248a5.355,5.355,0,0,1,3.9,1.344A5.169,5.169,0,0,1,14.528,18.9V22.96a.594.594,0,0,1-.672.672H5.824q-.384,0-.384.352v.7a1.96,1.96,0,0,0,.432,1.424,2.013,2.013,0,0,0,1.456.432h6.464q.672,0,.672.7V29.36a.689.689,0,0,1-.144.5A.745.745,0,0,1,13.792,30ZM5.824,20.912h4.352a.311.311,0,0,0,.352-.352V19.024a2,2,0,0,0-.416-1.44,2,2,0,0,0-1.44-.416H7.328a2,2,0,0,0-1.44.416,2,2,0,0,0-.416,1.44V20.56A.311.311,0,0,0,5.824,20.912Z" transform="translate(333.56 24.32)" fill="#fff"/>
    <path id="Path_40" data-name="Path 40" d="M6.291-10.476v-4.752H8.8c1.836,0,2.619.918,2.619,2.376s-.783,2.376-2.619,2.376Zm9.828-2.376c0-3.483-2.322-6.1-6.966-6.1H1.674V0H6.291V-6.8H9.153C13.986-6.8,16.119-9.72,16.119-12.852ZM33.264-7.533c0-4.779-3.4-7.749-7.83-7.749A7.447,7.447,0,0,0,17.6-7.533,7.39,7.39,0,0,0,25.38.216C29.808.216,33.264-2.754,33.264-7.533Zm-10.962,0c0-2.565,1.458-3.753,3.132-3.753,1.62,0,3.132,1.188,3.132,3.753,0,2.538-1.539,3.753-3.186,3.753C23.706-3.78,22.3-4.995,22.3-7.533Zm18.036.54c0-2.592,1.269-3.348,3.456-3.348h1.269v-4.887a5.616,5.616,0,0,0-4.725,2.673v-2.511H35.721V0h4.617Zm7.668,1.755C48.006-1.323,50.193,0,53.325,0h2.349V-3.915H54.027c-1.026,0-1.4-.378-1.4-1.269v-6.048h3.024v-3.834H52.623v-3.672H48.006v3.672H46.17v3.834h1.836ZM57.321-7.56c0,4.752,2.943,7.776,6.615,7.776a5.327,5.327,0,0,0,4.671-2.349V0h4.617V-15.066H68.607v2.133a5.244,5.244,0,0,0-4.644-2.349C60.264-15.282,57.321-12.312,57.321-7.56Zm11.286.027c0,2.4-1.539,3.726-3.294,3.726-1.728,0-3.294-1.35-3.294-3.753s1.566-3.7,3.294-3.7C67.068-11.259,68.607-9.936,68.607-7.533ZM76.572,0h4.617V-19.98H76.572Z" transform="translate(371 56)" fill="#566fff"/>
    <path id="Path_41" data-name="Path 41" d="M14.742-18.954H1.35v3.78h8.1L1.35-3.51V0H14.742V-3.78H6.588l8.154-11.664ZM16.848-7.56c0,4.752,2.943,7.776,6.615,7.776a5.327,5.327,0,0,0,4.671-2.349V0h4.617V-15.066H28.134v2.133a5.244,5.244,0,0,0-4.644-2.349C19.791-15.282,16.848-12.312,16.848-7.56Zm11.286.027c0,2.4-1.539,3.726-3.294,3.726-1.728,0-3.294-1.35-3.294-3.753s1.566-3.7,3.294-3.7C26.595-11.259,28.134-9.936,28.134-7.533Zm12.582.54c0-2.592,1.269-3.348,3.456-3.348h1.269v-4.887a5.616,5.616,0,0,0-4.725,2.673v-2.511H36.1V0h4.617Zm17.658-8.073h-11.5v3.807h6.21L46.818-3.672V0H58.509V-3.807H51.975l6.4-7.587ZM60.129-7.56c0,4.752,2.943,7.776,6.615,7.776a5.327,5.327,0,0,0,4.671-2.349V-.27a3.6,3.6,0,0,0-1.836,3.051c0,2.079,1.755,3.078,4,3.078a8.783,8.783,0,0,0,2.646-.4V2.862a6.385,6.385,0,0,1-2.052.4c-.756,0-1.188-.351-1.188-.891,0-.594.486-1.08,1.809-1.755L76.032,0V-15.066H71.415v2.133a5.244,5.244,0,0,0-4.644-2.349C63.072-15.282,60.129-12.312,60.129-7.56Zm11.286.027c0,2.4-1.539,3.726-3.294,3.726-1.728,0-3.294-1.35-3.294-3.753s1.566-3.7,3.294-3.7C69.876-11.259,71.415-9.936,71.415-7.533Zm7.047-.027C78.462-2.808,81.4.216,85.1.216A5.211,5.211,0,0,0,89.748-2.16V0h4.617V-19.98H89.748v6.993A5.53,5.53,0,0,0,85.1-15.282C81.4-15.282,78.462-12.312,78.462-7.56Zm11.286.027c0,2.4-1.539,3.726-3.294,3.726-1.728,0-3.294-1.35-3.294-3.753s1.566-3.7,3.294-3.7C88.209-11.259,89.748-9.936,89.748-7.533Zm7.047,0c0,4.779,3.132,7.749,7.56,7.749a7,7,0,0,0,7.236-5.67h-4.914a2.344,2.344,0,0,1-2.4,1.728c-1.647,0-2.781-1.3-2.781-3.807s1.134-3.807,2.781-3.807a2.38,2.38,0,0,1,2.4,1.728h4.914a6.9,6.9,0,0,0-7.236-5.67C99.927-15.282,96.795-12.285,96.795-7.533Zm24.192,1.89L117.5-15.066h-5.157L118.476-.513,115.02,7.155h4.968l9.45-22.221h-5Zm28.188-13.311V-7.209l-7.722-11.745h-4.617V0h4.617V-11.691L149.175,0h4.617V-18.954ZM157.14,0h4.617V-15.066H157.14Zm2.322-16.632a2.542,2.542,0,0,0,2.727-2.484,2.546,2.546,0,0,0-2.727-2.511,2.554,2.554,0,0,0-2.754,2.511A2.55,2.55,0,0,0,159.462-16.632Zm12.285,5.049a2.6,2.6,0,0,1,2.835,2.592H168.8A2.856,2.856,0,0,1,171.747-11.583Zm7.209,6.588h-4.914a2.455,2.455,0,0,1-2.4,1.458,2.793,2.793,0,0,1-2.862-2.889h10.449a11.667,11.667,0,0,0,.081-1.35,7.1,7.1,0,0,0-7.506-7.506c-4.482,0-7.614,2.97-7.614,7.749S167.373.216,171.8.216A7.041,7.041,0,0,0,178.956-4.995Zm7.4-2c0-2.592,1.269-3.348,3.456-3.348h1.269v-4.887a5.616,5.616,0,0,0-4.725,2.673v-2.511h-4.617V0h4.617Zm21.816-8.073h-4.617v8.181c0,2.052-1.134,3.186-2.916,3.186-1.728,0-2.889-1.134-2.889-3.186v-8.181h-4.59v8.8c0,4.023,2.349,6.426,5.832,6.426a5.489,5.489,0,0,0,4.563-2.214V0h4.617Zm2.4,7.533c0,4.779,3.132,7.749,7.56,7.749a7,7,0,0,0,7.236-5.67h-4.914a2.344,2.344,0,0,1-2.4,1.728c-1.647,0-2.781-1.3-2.781-3.807s1.134-3.807,2.781-3.807a2.38,2.38,0,0,1,2.4,1.728h4.914a6.9,6.9,0,0,0-7.236-5.67C213.705-15.282,210.573-12.285,210.573-7.533ZM227.826,0h4.617V-8.181c0-2.052,1.134-3.186,2.889-3.186s2.889,1.134,2.889,3.186V0h4.59V-8.8c0-4.05-2.295-6.426-5.724-6.426a5.556,5.556,0,0,0-4.644,2.187V-19.98h-4.617Zm32.94-7.533c0-4.779-3.4-7.749-7.83-7.749a7.447,7.447,0,0,0-7.83,7.749A7.39,7.39,0,0,0,252.882.216C257.31.216,260.766-2.754,260.766-7.533Zm-10.962,0c0-2.565,1.458-3.753,3.132-3.753,1.62,0,3.132,1.188,3.132,3.753,0,2.538-1.539,3.753-3.186,3.753C251.208-3.78,249.8-4.995,249.8-7.533ZM283.986,0h4.59V-8.8c0-4.05-2.4-6.426-6.129-6.426a6.06,6.06,0,0,0-5.076,2.808,5.628,5.628,0,0,0-5.13-2.808,5.315,5.315,0,0,0-4.4,2.052v-1.89h-4.617V0h4.617V-8.181a2.729,2.729,0,0,1,2.889-3.051,2.729,2.729,0,0,1,2.889,3.051V0h4.59V-8.181a2.729,2.729,0,0,1,2.889-3.051,2.729,2.729,0,0,1,2.889,3.051Zm22.572-7.533c0-4.779-3.4-7.749-7.83-7.749a7.447,7.447,0,0,0-7.83,7.749A7.39,7.39,0,0,0,298.674.216C303.1.216,306.558-2.754,306.558-7.533Zm-10.962,0c0-2.565,1.458-3.753,3.132-3.753,1.62,0,3.132,1.188,3.132,3.753,0,2.538-1.539,3.753-3.186,3.753C297-3.78,295.6-4.995,295.6-7.533Zm25.65,3.159c-.081-5.616-8.235-3.915-8.235-6.318,0-.729.594-1.161,1.674-1.161a1.986,1.986,0,0,1,2.214,1.7h4.266c-.3-2.97-2.457-5.13-6.345-5.13-3.942,0-6.129,2.106-6.129,4.671,0,5.535,8.208,3.78,8.208,6.21,0,.675-.621,1.215-1.809,1.215a2.115,2.115,0,0,1-2.322-1.755h-4.563c.216,2.916,2.916,5.157,6.939,5.157C318.924.216,321.246-1.755,321.246-4.374Zm-9.585-15.012V-16.2l6.507-2.727v-3.591Zm11.5,11.853c0,4.779,3.132,7.749,7.56,7.749a7,7,0,0,0,7.236-5.67h-4.914a2.344,2.344,0,0,1-2.4,1.728c-1.647,0-2.781-1.3-2.781-3.807S329-11.34,330.642-11.34a2.38,2.38,0,0,1,2.4,1.728h4.914a6.9,6.9,0,0,0-7.236-5.67C326.3-15.282,323.163-12.285,323.163-7.533ZM340.416,0h4.617V-15.066h-4.617Zm2.322-16.632a2.542,2.542,0,0,0,2.727-2.484,2.546,2.546,0,0,0-2.727-2.511,2.554,2.554,0,0,0-2.754,2.511A2.55,2.55,0,0,0,342.738-16.632Z" transform="translate(460 56)" fill="#202020"/>
  </g>
</svg>
